<!-- Generated by IcoMoon.io -->
<svg version="1.1" xmlns="http://www.w3.org/2000/svg" width="19" height="32" viewBox="0 0 19 32">
<title>facefook</title>
<path d="M17.641 1.245c-1.303-0.146-2.813-0.23-4.343-0.23-0.044 0-0.089 0-0.133 0l0.007-0c-4.948 0-8.022 3.151-8.022 8.224v3.445h-4.157c0 0 0 0 0 0-0.406 0-0.735 0.329-0.736 0.735v5.665c0.001 0.406 0.33 0.735 0.736 0.735 0 0 0 0 0 0h4.157v11.359c0.001 0.406 0.329 0.734 0.735 0.735h5.853c0 0 0 0 0 0 0.406 0 0.735-0.329 0.736-0.735v-11.36h4.143c0.372-0 0.68-0.277 0.729-0.636l0-0.004 0.732-5.664c0.004-0.029 0.006-0.063 0.006-0.097 0-0.405-0.329-0.734-0.734-0.734-0.001 0-0.002 0-0.003 0h-4.874v-2.881c0-1.428 0.287-2.024 2.071-2.024h3.001c0.406-0.001 0.734-0.329 0.735-0.735v-5.069c-0.001-0.372-0.277-0.679-0.636-0.728l-0.004-0zM16.809 6.306l-2.265 0.001c-3.174 0-3.542 1.995-3.542 3.495v3.619c0.001 0.406 0.329 0.734 0.735 0.735h4.776l-0.543 4.193h-4.232c-0.406 0.001-0.735 0.33-0.735 0.736 0 0 0 0 0 0v0 11.354h-4.382v-11.354c0 0 0 0 0 0 0-0.406-0.33-0.736-0.736-0.736-0 0-0.001 0-0.001 0h-4.153v-4.193h4.154c0 0 0 0 0 0 0.406 0 0.735-0.329 0.736-0.735v-4.182c0-4.228 2.45-6.753 6.551-6.753 1.485 0 2.825 0.082 3.637 0.152v3.668z"></path>
</svg>
