<!-- Generated by IcoMoon.io -->
<svg version="1.1" xmlns="http://www.w3.org/2000/svg" width="39" height="32" viewBox="0 0 39 32">
<title>medicaments</title>
<path d="M11.984 10.581h-12.153c-0.374 0-0.676 0.289-0.676 0.647v3.887c0 0.358 0.302 0.648 0.676 0.648h0.675v14.898c0 0.358 0.302 0.648 0.676 0.648h9.451c0.373 0 0.676-0.29 0.676-0.648v-14.898h0.675c0.373 0 0.675-0.29 0.675-0.648v-3.886c0-0.359-0.302-0.649-0.675-0.649zM4.558 22.888v-1.296h4.050v-1.296h-4.050v-1.296h5.401v8.421h-5.4v-3.238h1.35v-1.296h-1.351zM9.958 17.706h-6.075c-0.373 0-0.675 0.29-0.675 0.648v9.716c0 0.358 0.302 0.648 0.675 0.648h6.076v1.296h-8.102v-14.252h8.101v1.943zM11.31 14.468h-10.804v-2.591h10.804v2.591zM20.931 10.703v-4.736c0-0.369-0.302-0.667-0.676-0.667h-0.675v-3.333h1.35v-1.335h-7.427v1.335h4.726v3.333h-0.676c-0.001 0-0.003-0-0.005-0-0.369 0-0.669 0.298-0.67 0.667v4.736c-1.539 0.31-2.701 1.657-2.701 3.267v16.673c0 0.369 0.302 0.667 0.676 0.667h8.101c0.001 0 0.003 0 0.005 0 0.369 0 0.669-0.299 0.67-0.667v-16.672c0-1.609-1.161-2.957-2.7-3.267zM18.23 6.634h1.35v4.001h-1.35v-4.002zM17.554 11.968h2.701c1.117 0 2.025 0.898 2.025 2v0.667h-6.751v-0.667c0-1.103 0.909-2 2.025-2zM22.281 27.307h-6.752v-1.332h2.701v-1.335h-2.701v-8.669h6.751v11.337zM15.529 29.975v-1.334h6.751v1.334h-6.751zM38.19 9.752h-11.394c-0.351 0.006-0.633 0.291-0.633 0.643 0 0.004 0 0.007 0 0.011v-0.001 20.251c0 0.362 0.283 0.654 0.633 0.654h11.394c0.349 0 0.633-0.293 0.633-0.653v-20.252c0-0.003 0-0.007 0-0.011 0-0.351-0.282-0.637-0.632-0.643h-0.001zM37.556 30.003h-10.128v-18.945h10.128v18.944z"></path>
<path d="M9.284 23.018h-1.688v0.829h1.688v-0.829zM21.099 24.677h-1.688v1.659h1.688v-1.659zM18.99 23.018c1.628 0 2.953-1.301 2.953-2.902s-1.325-2.902-2.953-2.902c-1.629 0-2.954 1.302-2.954 2.902s1.325 2.902 2.953 2.902zM18.99 18.665c0.814 0 1.477 0.651 1.477 1.451s-0.663 1.451-1.477 1.451c-0.814 0-1.477-0.651-1.477-1.451s0.662-1.451 1.477-1.451zM30.91 16.384h3.164c1.222 0 2.216-0.929 2.216-2.072s-0.994-2.074-2.216-2.074h-3.164c-1.221 0-2.215 0.931-2.215 2.074s0.994 2.073 2.215 2.073zM35.024 14.312c0 0.489-0.426 0.888-0.95 0.888h-0.949v-1.776h0.949c0.524 0 0.95 0.399 0.95 0.889zM30.91 13.424h0.949v1.776h-0.949c-0.524 0-0.95-0.399-0.95-0.888s0.426-0.889 0.95-0.889zM30.91 23.018h3.164c1.222 0 2.216-1.115 2.216-2.487s-0.994-2.488-2.216-2.488h-3.164c-1.221 0-2.215 1.115-2.215 2.487s0.994 2.487 2.215 2.487zM35.024 20.531c0 0.587-0.426 1.065-0.95 1.065h-0.949v-2.131h0.949c0.524 0 0.95 0.478 0.95 1.066zM30.91 19.464h0.949v2.132h-0.949c-0.524 0-0.95-0.478-0.95-1.066s0.426-1.066 0.95-1.066zM30.91 28.822h3.164c1.222 0 2.216-1.115 2.216-2.487s-0.994-2.488-2.216-2.488h-3.164c-1.221 0-2.215 1.115-2.215 2.487s0.994 2.488 2.215 2.488zM35.024 26.335c0 0.588-0.426 1.066-0.95 1.066h-0.949v-2.132h0.949c0.524 0 0.95 0.478 0.95 1.066zM30.91 25.269h0.949v2.132h-0.949c-0.524 0-0.95-0.478-0.95-1.066s0.426-1.066 0.95-1.066z"></path>
</svg>
