<!-- Generated by IcoMoon.io -->
<svg version="1.1" xmlns="http://www.w3.org/2000/svg" width="166" height="32" viewBox="0 0 166 32">
<title>background-footer</title>
<path d="M37.805 7.547c-0.316-0.292-0.719-0.494-1.165-0.565l-0.013-0.002c-0.095-0.015-0.205-0.023-0.316-0.023-0.348 0-0.677 0.082-0.968 0.229l0.012-0.006-8.417 4.107c-0.043 0.027-0.096 0.042-0.152 0.042-0.079 0-0.151-0.031-0.204-0.081l0 0c-0.032-0.030-0.058-0.066-0.076-0.105l-0.001-0.002-4.917-9.717c-0.198-0.399-0.487-0.727-0.842-0.964l-0.009-0.006c-0.333-0.222-0.742-0.355-1.182-0.356h-0c-0.44 0.001-0.849 0.134-1.19 0.361l0.008-0.005c-0.358 0.234-0.652 0.569-0.852 0.971l-4.916 9.716c-0.020 0.042-0.047 0.078-0.079 0.108l-0 0c-0.031 0.028-0.067 0.051-0.108 0.065l-0.002 0.001c-0.028 0.010-0.060 0.015-0.093 0.015-0.056 0-0.108-0.016-0.153-0.043l0.001 0.001-8.418-4.107c-0.281-0.144-0.613-0.229-0.964-0.229-0.108 0-0.214 0.008-0.318 0.023l0.012-0.001c-0.459 0.071-0.862 0.273-1.179 0.566l0.002-0.001c-0.335 0.309-0.587 0.702-0.722 1.146l-0.005 0.018c-0.077 0.244-0.121 0.526-0.121 0.817 0 0.211 0.023 0.416 0.067 0.613l-0.003-0.019 4.252 19.855c0.071 0.335 0.204 0.652 0.391 0.929s0.421 0.51 0.692 0.684c0.356 0.24 0.766 0.366 1.184 0.366 0.213-0.002 0.427-0.033 0.633-0.092 3.561-1.128 7.657-1.778 11.904-1.778 4.226 0 8.302 0.643 12.135 1.838l-0.289-0.078c0.302 0.096 0.62 0.124 0.933 0.080 0.314-0.042 0.616-0.154 0.889-0.329 0.279-0.182 0.512-0.412 0.692-0.679l0.005-0.009c0.188-0.279 0.324-0.596 0.396-0.934l4.234-19.855c0.044-0.185 0.069-0.397 0.069-0.615 0-0.282-0.042-0.554-0.12-0.81l0.005 0.020c-0.137-0.461-0.387-0.854-0.718-1.16l-0.002-0.002zM36.64 9.6l-4.251 19.854c-0.022 0.097-0.076 0.179-0.148 0.238l-0.001 0.001c-0.053 0.029-0.116 0.047-0.183 0.047-0.030 0-0.059-0.003-0.086-0.010l0.003 0c-3.715-1.175-7.987-1.852-12.417-1.852s-8.702 0.677-12.718 1.933l0.301-0.081c-0.027 0.009-0.059 0.014-0.092 0.014-0.064 0-0.123-0.020-0.171-0.053l0.001 0.001c-0.040-0.027-0.073-0.061-0.099-0.1l-0.001-0.001c-0.026-0.039-0.045-0.085-0.055-0.134l-0-0.002-4.25-19.854c-0.004-0.022-0.006-0.047-0.006-0.073 0-0.090 0.028-0.174 0.077-0.242l-0.001 0.001c0.031-0.043 0.070-0.078 0.116-0.103l0.002-0.001c0.042-0.024 0.092-0.038 0.145-0.040h0.001l0.133 0.036 8.434 4.124c0.277 0.142 0.604 0.225 0.951 0.225 0.264 0 0.517-0.048 0.751-0.137l-0.015 0.005c0.553-0.204 1.016-0.63 1.296-1.193l4.916-9.717c0.026-0.058 0.066-0.105 0.115-0.14l0.001-0.001c0.047-0.032 0.104-0.051 0.167-0.051s0.12 0.019 0.168 0.052l-0.001-0.001c0.051 0.035 0.091 0.083 0.116 0.138l0.001 0.002 4.916 9.716c0.281 0.563 0.744 0.989 1.297 1.193s1.156 0.171 1.687-0.092l8.434-4.124c0.040-0.020 0.087-0.032 0.137-0.032 0.083 0 0.157 0.033 0.212 0.086l-0-0c0.049 0.044 0.086 0.1 0.106 0.164l0.001 0.003c0.012 0.036 0.019 0.078 0.019 0.121 0 0.028-0.003 0.056-0.008 0.082l0-0.003zM25.889 23.532c-0.028 0.276-0.148 0.52-0.33 0.703l0-0c-0.184 0.182-0.423 0.284-0.67 0.287h-0.1c-1.57-0.184-3.39-0.289-5.233-0.289s-3.663 0.105-5.452 0.309l0.219-0.020c-0.031 0.004-0.067 0.006-0.104 0.006-0.242 0-0.462-0.092-0.629-0.242l0.001 0.001c-0.204-0.185-0.34-0.443-0.368-0.731l-0-0.005c-0.003-0.030-0.004-0.066-0.004-0.102 0-0.265 0.086-0.51 0.232-0.709l-0.002 0.003c0.157-0.216 0.395-0.364 0.669-0.402l0.005-0.001c1.631-0.201 3.519-0.316 5.433-0.316s3.802 0.115 5.657 0.338l-0.224-0.022c0.261 0.032 0.5 0.174 0.668 0.396s0.251 0.507 0.231 0.795z"></path>
</svg>
