<!-- Generated by IcoMoon.io -->
<svg version="1.1" xmlns="http://www.w3.org/2000/svg" width="29" height="32" viewBox="0 0 29 32">
<title>phusic-icon</title>
<path d="M14.612 0.073c-1.145 0-2.215 0.521-3.127 1.375s-1.692 2.044-2.343 3.485c-0.136 0.302-0.266 0.616-0.391 0.94-0.239-0.042-0.585-0.088-0.933-0.124l-0.078-0.007c-0.329-0.036-0.728-0.062-1.131-0.072l-0.020-0c-1.12-0.027-2.143 0.087-3.040 0.359-1.196 0.363-2.182 1.028-2.755 2.020s-0.656 2.18-0.372 3.396c0.284 1.217 0.924 2.487 1.847 3.772 0.193 0.269 0.4 0.539 0.618 0.809-0.184 0.225-0.387 0.488-0.582 0.757l-0.036 0.052c-0.923 1.284-1.563 2.555-1.847 3.772s-0.2 2.404 0.372 3.396c0.573 0.991 1.56 1.657 2.756 2.020s2.616 0.444 4.189 0.287c0.33-0.033 0.667-0.077 1.010-0.131 0.121 0.317 0.252 0.631 0.391 0.941 0.651 1.441 1.431 2.631 2.343 3.485s1.982 1.376 3.127 1.376 2.215-0.522 3.127-1.376c0.911-0.855 1.692-2.044 2.342-3.485 0.14-0.31 0.271-0.624 0.393-0.941 0.342 0.054 0.679 0.098 1.008 0.131 1.574 0.157 2.995 0.076 4.19-0.287 1.196-0.362 2.183-1.028 2.756-2.020s0.655-2.179 0.372-3.396c-0.284-1.216-0.924-2.487-1.847-3.771-0.232-0.321-0.434-0.584-0.644-0.842l0.026 0.033c0.214-0.264 0.42-0.534 0.618-0.809 0.924-1.284 1.564-2.555 1.847-3.772s0.201-2.404-0.372-3.396c-0.573-0.992-1.56-1.658-2.755-2.020-0.897-0.271-1.92-0.385-3.040-0.359-0.423 0.011-0.822 0.037-1.216 0.078l0.066-0.006c-0.329 0.033-0.667 0.077-1.010 0.131-0.165-0.437-0.297-0.747-0.437-1.053l0.046 0.113c-0.651-1.441-1.431-2.631-2.343-3.485s-1.982-1.376-3.128-1.376zM14.612 1.346c0.764 0 1.513 0.336 2.256 1.032 0.742 0.696 1.452 1.749 2.052 3.079 0.097 0.217 0.191 0.436 0.279 0.657-1.46 0.325-3.007 0.823-4.588 1.489-1.58-0.665-3.127-1.164-4.587-1.488 0.090-0.225 0.183-0.446 0.279-0.658 0.601-1.331 1.311-2.384 2.053-3.080s1.492-1.031 2.256-1.031zM6.185 6.941c0.019-0 0.041-0 0.063-0 0.481 0 0.955 0.025 1.423 0.073l-0.059-0.005c0.233 0.023 0.47 0.053 0.711 0.087-0.449 1.428-0.791 3.015-1.006 4.717-1.367 1.036-2.572 2.127-3.583 3.229-0.148-0.187-0.292-0.377-0.431-0.571-0.852-1.185-1.409-2.327-1.641-3.318s-0.148-1.807 0.235-2.469c0.382-0.662 1.047-1.142 2.021-1.438 0.639-0.193 1.404-0.298 2.265-0.305zM23.038 6.941c0.861 0.008 1.626 0.113 2.265 0.306 0.975 0.295 1.639 0.776 2.022 1.438s0.465 1.479 0.234 2.469c-0.231 0.991-0.788 2.132-1.641 3.318-0.139 0.193-0.284 0.384-0.431 0.572-1.011-1.103-2.215-2.193-3.582-3.229-0.214-1.702-0.556-3.29-1.005-4.717 0.24-0.035 0.478-0.065 0.71-0.088 0.41-0.044 0.885-0.069 1.366-0.069 0.022 0 0.043 0 0.065 0h-0.003zM19.634 7.326c0.318 0.953 0.606 2.118 0.809 3.311l0.020 0.146c-1.203-0.826-2.59-1.64-4.035-2.356l-0.202-0.091c1.181-0.44 2.327-0.777 3.408-1.010zM9.591 7.326c1.080 0.233 2.225 0.571 3.407 1.011-1.646 0.806-3.034 1.62-4.355 2.522l0.119-0.077c0.223-1.339 0.511-2.503 0.878-3.631l-0.049 0.175zM14.612 8.993c1.266 0.561 2.296 1.094 3.292 1.678l-0.153-0.083c1.050 0.606 2.036 1.252 2.951 1.921 0.123 1.127 0.189 2.304 0.189 3.516 0 1.211-0.066 2.388-0.189 3.514-0.836 0.619-1.799 1.254-2.796 1.837l-0.154 0.083c-0.843 0.501-1.873 1.034-2.933 1.512l-0.206 0.083c-1.266-0.561-2.296-1.094-3.292-1.678l0.154 0.083c-1.151-0.666-2.114-1.301-3.040-1.983l0.090 0.063c-0.12-1.050-0.188-2.267-0.188-3.5 0-0.006 0-0.011 0-0.017v0.001c0-1.212 0.065-2.389 0.188-3.516 0.836-0.619 1.799-1.254 2.796-1.837l0.154-0.083c0.843-0.501 1.873-1.034 2.933-1.511l0.206-0.083zM14.698 10.911l-3.648 2.252 3.648 2.251 3.647-2.251-3.647-2.252zM7.146 13.58c-0.055 0.732-0.086 1.585-0.086 2.446s0.031 1.714 0.093 2.559l-0.007-0.113c-0.937-0.772-1.779-1.572-2.562-2.428l-0.017-0.019c0.8-0.874 1.642-1.674 2.537-2.412l0.042-0.034zM22.079 13.58c0.937 0.772 1.779 1.572 2.561 2.427l0.017 0.019c-0.799 0.874-1.641 1.673-2.536 2.411l-0.042 0.034c0.055-0.732 0.086-1.585 0.086-2.445s-0.031-1.714-0.093-2.559l0.007 0.113zM10.228 14.152v4.445l3.831 2.364v-4.445l-3.831-2.364zM19.164 14.154l-3.831 2.364v4.444l3.831-2.364v-4.444zM3.736 17.007c1.011 1.103 2.216 2.193 3.583 3.229 0.214 1.702 0.556 3.289 1.005 4.716-0.24 0.035-0.478 0.064-0.71 0.087-1.452 0.145-2.719 0.058-3.693-0.238s-1.639-0.776-2.022-1.438c-0.381-0.662-0.465-1.478-0.234-2.469s0.789-2.132 1.641-3.318c0.139-0.193 0.283-0.383 0.431-0.57zM25.487 17.007c0.151 0.191 0.295 0.381 0.431 0.57 0.852 1.185 1.409 2.327 1.641 3.318s0.148 1.807-0.235 2.469c-0.382 0.662-1.047 1.143-2.021 1.438s-2.24 0.383-3.693 0.238c-0.237-0.024-0.473-0.053-0.709-0.087 0.449-1.428 0.791-3.016 1.005-4.718 1.367-1.035 2.571-2.126 3.582-3.228zM20.463 21.268c-0.223 1.339-0.511 2.503-0.878 3.632l0.049-0.175c-1.336-0.296-2.475-0.644-3.576-1.068l0.169 0.057c1.647-0.807 3.034-1.621 4.356-2.523l-0.12 0.077zM8.761 21.268c1.202 0.826 2.589 1.639 4.033 2.355l0.202 0.091c-0.932 0.367-2.071 0.715-3.242 0.979l-0.165 0.031c-0.318-0.953-0.606-2.117-0.808-3.31l-0.020-0.146zM14.649 21.326l0.047 0.029 0.047-0.029h-0.092zM14.612 24.447c1.581 0.665 3.127 1.164 4.588 1.488-0.088 0.222-0.182 0.441-0.279 0.66-0.601 1.33-1.31 2.383-2.053 3.079-0.742 0.696-1.491 1.031-2.255 1.031s-1.513-0.335-2.256-1.031c-0.743-0.696-1.452-1.749-2.053-3.079-0.097-0.218-0.191-0.438-0.279-0.66 1.46-0.324 3.007-0.823 4.588-1.488z"></path>
</svg>
